<?xml version="1.0" encoding="UTF-8" standalone="no"?><!DOCTYPE svg PUBLIC "-//W3C//DTD SVG 1.1//EN" "http://www.w3.org/Graphics/SVG/1.1/DTD/svg11.dtd"><svg width="100%" height="100%" viewBox="0 0 502 502" version="1.1" xmlns="http://www.w3.org/2000/svg" xmlns:xlink="http://www.w3.org/1999/xlink" xml:space="preserve" style="fill-rule:evenodd;clip-rule:evenodd;stroke-linejoin:round;stroke-miterlimit:1.41421;"><g><path d="M250.578,495.114c-134.373,0 -243.694,-109.32 -243.694,-243.692c0,-134.373 109.321,-243.692 243.694,-243.692c134.372,0 243.692,109.319 243.692,243.692c0,134.372 -109.32,243.692 -243.692,243.692Z" style="fill:#0f6c09;fill-rule:nonzero;"/><path d="M250.578,0.844c-33.822,0 -66.639,6.628 -97.541,19.698c-29.84,12.621 -56.637,30.687 -79.645,53.695c-23.008,23.008 -41.074,49.804 -53.695,79.644c-13.07,30.902 -19.697,63.719 -19.697,97.541c0,33.822 6.627,66.639 19.697,97.54c12.621,29.841 30.687,56.637 53.695,79.645c23.008,23.008 49.805,41.074 79.645,53.696c30.902,13.07 63.719,19.697 97.541,19.697c33.822,0 66.639,-6.627 97.54,-19.697c29.841,-12.622 56.637,-30.688 79.645,-53.696c23.008,-23.008 41.074,-49.804 53.695,-79.645c13.07,-30.901 19.698,-63.718 19.698,-97.54c0,-33.822 -6.628,-66.639 -19.698,-97.541c-12.621,-29.84 -30.687,-56.636 -53.695,-79.644c-23.008,-23.008 -49.804,-41.074 -79.645,-53.695c-30.901,-13.07 -63.718,-19.698 -97.54,-19.698ZM250.578,14.615c130.785,0 236.807,106.022 236.807,236.807c0,130.785 -106.022,236.808 -236.807,236.808c-130.786,0 -236.808,-106.023 -236.808,-236.808c0,-130.785 106.022,-236.807 236.808,-236.807Z" style="fill:#ed1b24;fill-rule:nonzero;"/><path d="M250.578,14.475c-130.785,0 -236.808,106.022 -236.808,236.807c0,130.785 106.023,236.808 236.808,236.808c130.785,0 236.808,-106.023 236.808,-236.808c0,-130.785 -106.023,-236.807 -236.808,-236.807ZM250.578,18.606c62.15,0 120.58,24.202 164.527,68.149c43.947,43.947 68.15,102.377 68.15,164.527c0,62.15 -24.203,120.581 -68.15,164.527c-43.947,43.947 -102.377,68.15 -164.527,68.15c-62.15,0 -120.582,-24.203 -164.528,-68.15c-43.947,-43.946 -68.149,-102.377 -68.149,-164.527c0,-62.15 24.202,-120.58 68.149,-164.527c43.946,-43.947 102.378,-68.149 164.528,-68.149Z" style="fill:#fff;fill-rule:nonzero;"/><path d="M121.517,165.8c-13.507,0 -26.533,3.914 -37.67,11.318c-34.841,23.165 -43.116,74.409 -18.447,114.232c15.849,25.583 42.677,41.475 70.015,41.475c13.507,0 26.533,-3.914 37.67,-11.317c34.841,-23.166 43.116,-74.41 18.446,-114.233c-15.848,-25.583 -42.676,-41.475 -70.014,-41.475ZM123.493,365.39c-46.717,0 -87.667,-27.517 -104.327,-70.104c-22.969,-58.717 7.333,-127.127 67.55,-152.499c15.044,-6.338 30.764,-9.552 46.723,-9.552c46.715,0 87.666,27.518 104.326,70.105c22.969,58.716 -7.333,127.126 -67.549,152.497c-15.043,6.338 -30.764,9.553 -46.722,9.553l-0.001,0Z" style="fill:#fff;fill-rule:nonzero;"/><path d="M284.354,108.255l8.151,-9.785l30.958,12.709l32.299,-13.158l3.72,5.517l-33.939,28.491l-41.189,-23.774Z" style="fill:#fff;fill-rule:nonzero;"/><path d="M313.016,244.2l50.77,-5.038l-24.267,-36.881l-26.503,41.919ZM216.345,351.882l102.357,-205.427l21.617,-0.759l140.415,204.417l-53.617,-0.174l-43.406,-72.151l-92.34,0.681l-45.071,75.433l-29.955,-2.02Z" style="fill:#fff;fill-rule:nonzero;"/><path d="M168.795,141.686c16.033,5.361 32.366,14.694 44.68,27.261c16.504,16.842 25.545,37.715 29.205,64.965c3.239,37.931 -10.682,72.108 -40.247,98.933c-17.63,15.998 -38.18,25.722 -61.08,28.9c-4.111,0.57 -8.358,0.934 -12.622,1.085c-14.623,0.515 -28.522,-1.861 -41.309,-7.062c-1.204,-0.492 -4.869,-1.983 -3.367,-6.863c0.282,-0.914 1.029,-3.342 3.405,-3.672c0.804,-0.111 1.679,0.031 2.838,0.457c11.047,4.076 22.05,6.151 32.703,6.166c5.135,0.008 10.298,-0.344 15.35,-1.045c4.372,-0.607 8.788,-1.493 13.125,-2.634c18.892,-4.967 35.684,-14.948 49.906,-29.671c18.741,-19.398 29.08,-42.484 30.734,-68.616c2.462,-38.911 -16.322,-72.957 -50.248,-91.074c-4.064,-2.169 -8.576,-4.345 -13.795,-6.652c-1.906,-0.843 -4.277,-2.426 -2.863,-6.444l3.585,-4.034Z" style="fill:url(#_Linear1);"/><path d="M97.211,337.963c-8.453,-2.319 -15.273,-7.748 -21.003,-12.654c-20.004,-17.124 -32.263,-39.115 -36.434,-65.359c-1.037,-6.528 -2.159,-15.091 -1.621,-23.426c2.622,-40.679 25.105,-71.169 60.142,-81.556c7.516,-2.229 15.134,-3.358 22.64,-3.358c14.273,0 28.822,4.104 43.244,12.2l-4.989,8.693c-12.933,-6.785 -25.331,-9.107 -38.156,-9.125c-34.651,0 -64.204,26.175 -70.372,62.239c-6.55,38.299 10.922,77.581 42.953,97.885c2.108,1.336 3.906,2.696 6.128,4.006l-2.532,10.455Z" style="fill:url(#_Linear2);"/><path d="M456.115,339.422l-21.451,0l-6.262,8.108l47.088,-0.198l-37.547,-54.6l-99.012,-144.199l-4.06,10.151l121.244,180.738Z" style="fill:#a29490;fill-rule:nonzero;"/><path d="M346.623,185.924l-14.85,3.216l-32.449,52.087l2.965,14.831l44.334,-70.134Z" style="fill:#a29490;fill-rule:nonzero;"/><path d="M385.261,275.022l9.299,-10.052l-30.982,0.475l0,-0.007l-78.448,0.545l0.014,0.119l-45.339,74.507l-9.163,-0.73l-9.992,9.58l24.229,1.542l5.633,-9.539l-0.054,-0.004l39.344,-65.731l95.459,-0.705Z" style="fill:#a29490;fill-rule:nonzero;"/><path d="M356.279,96.323l-2.072,0.844l-30.742,12.524l-29.502,-12.112l-1.869,-0.767l-1.293,1.552l-6.458,7.753l-2.094,2.513l2.833,1.635l38.937,22.474l1.67,0.964l1.477,-1.24l32.252,-27.073l1.898,-1.594l-1.385,-2.055l-2.402,-3.562l-1.25,-1.856ZM355.246,99.718l2.401,3.562l-32.251,27.074l-38.937,-22.474l6.458,-7.753l30.544,12.539l31.785,-12.948Z" style="fill:#ed1b24;fill-rule:nonzero;"/><path d="M318.358,240.902l21.208,-33.541l19.416,29.51l-40.624,4.031ZM341.733,142.89l-3.021,0.106l-18.468,0.649l-3.275,0.115l-1.462,2.933l-99.785,200.263l-3.686,7.396l8.245,0.556l24.151,1.628l3.367,0.227l1.731,-2.898l43.411,-72.653l89.219,-0.659l41.797,69.477l1.599,2.659l3.103,0.01l46.813,0.149l5.262,-2.735l-0.704,-5.891l-136.585,-198.84l-1.712,-2.492ZM307.671,247.498l60.919,-6.046l-29.116,-44.252l-31.803,50.298ZM338.905,148.501l136.585,198.839l-46.814,-0.149l-43.415,-72.169l-95.459,0.705l-45,75.313l-24.15,-1.628l99.785,-200.263l18.468,-0.648Z" style="fill:#ed1b24;fill-rule:nonzero;"/><path d="M135.414,330.043c-26.381,0 -52.303,-15.388 -67.648,-40.158c-23.888,-38.56 -15.983,-88.107 17.621,-110.449c10.677,-7.099 23.171,-10.852 36.131,-10.854c26.383,0 52.302,15.387 67.647,40.159c23.888,38.559 15.983,88.106 -17.621,110.449c-10.679,7.1 -23.172,10.853 -36.13,10.853ZM133.439,130.453c-16.333,0 -32.416,3.287 -47.804,9.771c-61.595,25.951 -92.574,95.967 -69.06,156.075c17.08,43.661 59.048,71.873 106.918,71.873c16.332,0 32.416,-3.287 47.803,-9.77c61.595,-25.952 92.575,-95.967 69.06,-156.076c-17.08,-43.661 -59.048,-71.873 -106.917,-71.873ZM135.414,335.608c13.658,0 27.202,-3.799 39.211,-11.784c36.136,-24.026 44.764,-76.863 19.271,-118.014c-17.021,-27.476 -44.941,-42.795 -72.379,-42.792c-13.658,0.001 -27.202,3.799 -39.211,11.783c-36.136,24.026 -44.764,76.863 -19.271,118.014c17.021,27.476 44.941,42.793 72.379,42.793ZM133.439,136.018c44.125,0 85.004,25.568 101.735,68.335c22.461,57.416 -7.105,124.09 -66.038,148.92c-15.036,6.335 -30.53,9.334 -45.643,9.334c-44.126,0 -85.005,-25.568 -101.736,-68.335c-22.46,-57.416 7.105,-124.09 66.039,-148.92c15.035,-6.335 30.529,-9.334 45.643,-9.334Z" style="fill:#ed1b24;fill-rule:nonzero;"/><path d="M88.45,126.962c-6.743,0 -12.32,-5.74 -12.432,-12.795c-0.113,-7.173 5.371,-13.106 12.227,-13.227l0.212,-0.001c6.743,0 12.32,5.74 12.432,12.795c0.114,7.173 -5.371,13.106 -12.226,13.227l-0.213,0.001Z" style="fill:#fff;fill-rule:nonzero;"/><path d="M88.458,99.548l-0.238,0.002c-7.621,0.134 -13.719,6.7 -13.593,14.639c0.124,7.81 6.325,14.165 13.823,14.165l0.237,-0.002c7.621,-0.134 13.719,-6.701 13.593,-14.64c-0.124,-7.81 -6.325,-14.164 -13.822,-14.164ZM88.457,102.33c6.015,-0.001 10.94,5.075 11.041,11.426c0.101,6.418 -4.761,11.707 -10.86,11.814c-0.063,0.001 -0.126,0.001 -0.188,0.001c-6.015,0 -10.94,-5.075 -11.04,-11.426c-0.102,-6.418 4.76,-11.706 10.859,-11.814c0.063,-0.001 0.126,-0.001 0.188,-0.001Z" style="fill:#ed1b24;fill-rule:nonzero;"/><path d="M151.21,122.627c-6.742,0 -12.318,-5.74 -12.431,-12.795c-0.113,-7.173 5.371,-13.106 12.226,-13.227l0.213,-0.001c6.743,0 12.319,5.739 12.431,12.795c0.114,7.173 -5.37,13.106 -12.226,13.227l-0.213,0.001Z" style="fill:#fff;fill-rule:nonzero;"/><path d="M151.219,95.212l-0.238,0.002c-7.621,0.134 -13.719,6.701 -13.593,14.64c0.124,7.81 6.325,14.165 13.823,14.165l0.237,-0.002c7.621,-0.134 13.719,-6.702 13.593,-14.64c-0.124,-7.811 -6.325,-14.165 -13.822,-14.165ZM151.218,97.995c6.015,-0.001 10.94,5.075 11.04,11.426c0.102,6.417 -4.76,11.706 -10.859,11.813c-0.063,0.002 -0.126,0.002 -0.188,0.002c-6.015,0 -10.94,-5.075 -11.041,-11.427c-0.101,-6.417 4.761,-11.705 10.86,-11.812c0.063,-0.002 0.126,-0.002 0.188,-0.002Z" style="fill:#ed1b24;fill-rule:nonzero;"/></g><defs><linearGradient id="_Linear1" x1="0" y1="0" x2="1" y2="0" gradientUnits="userSpaceOnUse" gradientTransform="matrix(130.761,52.6185,-53.5332,131.974,118.498,244.653)"><stop offset="0%" style="stop-color:#fff;stop-opacity:1"/><stop offset="20%" style="stop-color:#f8f6f6;stop-opacity:1"/><stop offset="20%" style="stop-color:#f8f6f6;stop-opacity:1"/><stop offset="30%" style="stop-color:#cbc2bf;stop-opacity:1"/><stop offset="30%" style="stop-color:#cbc2bf;stop-opacity:1"/><stop offset="40%" style="stop-color:#b4a8a5;stop-opacity:1"/><stop offset="40%" style="stop-color:#b4a8a5;stop-opacity:1"/><stop offset="70%" style="stop-color:#a29591;stop-opacity:1"/><stop offset="70%" style="stop-color:#a29591;stop-opacity:1"/><stop offset="100%" style="stop-color:#a29591;stop-opacity:1"/></linearGradient><linearGradient id="_Linear2" x1="0" y1="0" x2="1" y2="0" gradientUnits="userSpaceOnUse" gradientTransform="matrix(-109.077,-50.582,50.582,-109.077,125.478,248.552)"><stop offset="0%" style="stop-color:#fff;stop-opacity:1"/><stop offset="20%" style="stop-color:#f8f6f6;stop-opacity:1"/><stop offset="20%" style="stop-color:#f8f6f6;stop-opacity:1"/><stop offset="30%" style="stop-color:#cbc2bf;stop-opacity:1"/><stop offset="30%" style="stop-color:#cbc2bf;stop-opacity:1"/><stop offset="40%" style="stop-color:#b4a8a5;stop-opacity:1"/><stop offset="40%" style="stop-color:#b4a8a5;stop-opacity:1"/><stop offset="70%" style="stop-color:#a29591;stop-opacity:1"/><stop offset="70%" style="stop-color:#a29591;stop-opacity:1"/><stop offset="100%" style="stop-color:#a29591;stop-opacity:1"/></linearGradient></defs></svg>